<svg width="237" height="30" viewBox="0 0 237 30" fill="none" xmlns="http://www.w3.org/2000/svg">
<path d="M0.734375 2.82812C1.625 3.03906 2.42188 3.20312 3.125 3.32031C3.85156 3.41406 4.46094 3.48437 4.95312 3.53125C5.53906 3.60156 6.05469 3.625 6.5 3.60156C7.0625 3.57813 7.76562 3.49609 8.60938 3.35547C9.45312 3.21484 10.3438 3.07422 11.2812 2.93359C12.2188 2.79297 13.1445 2.67578 14.0586 2.58203C14.9727 2.48828 15.7695 2.47656 16.4492 2.54688C17.1289 2.61719 17.8438 2.78125 18.5938 3.03906C19.3438 3.27344 20.0469 3.60156 20.7031 4.02344C21.3594 4.42188 21.9219 4.91406 22.3906 5.5C22.8828 6.08594 23.1875 6.76562 23.3047 7.53906C23.4219 8.28906 23.3516 9.09766 23.0938 9.96484C22.8359 10.8086 22.4258 11.6406 21.8633 12.4609C21.3008 13.2578 20.5977 13.9961 19.7539 14.6758C18.9102 15.3555 17.9727 15.9062 16.9414 16.3281C16.1211 16.6328 15.2305 16.8672 14.2695 17.0312C13.4492 17.1719 12.4883 17.2656 11.3867 17.3125C10.3086 17.3359 9.16016 17.2188 7.94141 16.9609C7.77734 17.6406 7.68359 18.2734 7.66016 18.8594C7.66016 19.4219 7.68359 19.9258 7.73047 20.3711C7.80078 20.8867 7.89453 21.3555 8.01172 21.7773C8.15234 22.1992 8.32812 22.6914 8.53906 23.2539C8.72656 23.7227 8.9375 24.2969 9.17188 24.9766C9.42969 25.6328 9.73438 26.3711 10.0859 27.1914C9.66406 27.1914 9.25391 27.2031 8.85547 27.2266C8.45703 27.2266 8.09375 27.2383 7.76562 27.2617C7.39062 27.2852 7.03906 27.3086 6.71094 27.332C6.33594 27.3555 5.91406 27.4023 5.44531 27.4727C5.04688 27.5195 4.54297 27.5898 3.93359 27.6836C3.34766 27.7773 2.67969 27.8945 1.92969 28.0352C2.42188 27.332 2.80859 26.6875 3.08984 26.1016C3.39453 25.4922 3.61719 24.9648 3.75781 24.5195C3.92188 24.0039 4.02734 23.5352 4.07422 23.1133C4.09766 22.7617 4.09766 22.1406 4.07422 21.25C4.07422 20.3594 4.0625 19.3281 4.03906 18.1562C4.01562 16.9844 3.98047 15.7539 3.93359 14.4648C3.88672 13.1758 3.82812 11.9688 3.75781 10.8438C3.6875 9.69531 3.60547 8.71094 3.51172 7.89062C3.44141 7.07031 3.37109 6.53125 3.30078 6.27344C3.20703 5.96875 3.04297 5.64062 2.80859 5.28906C2.62109 4.98438 2.35156 4.63281 2 4.23438C1.67188 3.8125 1.25 3.34375 0.734375 2.82812ZM8.01172 9.75391C7.98828 9.98828 7.97656 10.2344 7.97656 10.4922C7.97656 10.9844 8.01172 11.6172 8.08203 12.3906C8.24609 12.7891 8.44531 13.1172 8.67969 13.375C8.9375 13.6328 9.20703 13.832 9.48828 13.9727C9.79297 14.1133 10.0977 14.207 10.4023 14.2539C10.707 14.3008 11.0117 14.3242 11.3164 14.3242C12.0195 14.3008 12.7578 14.1367 13.5312 13.832C14.5625 13.3867 15.2891 12.7539 15.7109 11.9336C16.1328 11.1133 16.3555 10.2695 16.3789 9.40234C16.4023 8.53516 16.25 7.73828 15.9219 7.01172C15.6172 6.28516 15.2422 5.79297 14.7969 5.53516C14.4219 5.37109 13.9414 5.30078 13.3555 5.32422C12.8398 5.34766 12.1953 5.47656 11.4219 5.71094C10.6484 5.94531 9.69922 6.36719 8.57422 6.97656C8.45703 7.39844 8.36328 7.77344 8.29297 8.10156C8.22266 8.42969 8.16406 8.72266 8.11719 8.98047C8.07031 9.26172 8.03516 9.51953 8.01172 9.75391ZM23.5156 12.2852L29.9844 12.3555C29.6094 13.7852 29.3281 15.0039 29.1406 16.0117C28.9766 17.0195 28.8711 17.8633 28.8242 18.543C28.7305 19.3164 28.707 19.9727 28.7539 20.5117C28.8242 21.0039 28.9414 21.5312 29.1055 22.0938C29.2461 22.5625 29.457 23.1016 29.7383 23.7109C30.0195 24.3203 30.3945 24.9297 30.8633 25.5391C30.582 25.4453 30.2773 25.375 29.9492 25.3281C29.6211 25.2812 29.3164 25.2461 29.0352 25.2227C28.707 25.1992 28.3789 25.1992 28.0508 25.2227C27.7227 25.2461 27.3594 25.2812 26.9609 25.3281C26.6328 25.375 26.2344 25.4336 25.7656 25.5039C25.2969 25.5742 24.8047 25.668 24.2891 25.7852C24.6406 24.7305 24.9102 23.8164 25.0977 23.043C25.3086 22.2695 25.4609 21.625 25.5547 21.1094C25.6484 20.5 25.707 20.0078 25.7305 19.6328C25.7305 19.1641 25.7305 18.6367 25.7305 18.0508C25.7305 17.4414 25.7305 16.8555 25.7305 16.293C25.7305 15.7305 25.7188 15.2383 25.6953 14.8164C25.6719 14.3711 25.625 14.0898 25.5547 13.9727L25.2031 13.6211C25.0625 13.5039 24.8516 13.3398 24.5703 13.1289C24.3125 12.8945 23.9609 12.6133 23.5156 12.2852ZM26.0117 6.87109C26.5039 6.61328 26.9961 6.54297 27.4883 6.66016C28.0039 6.77734 28.4023 7 28.6836 7.32812C28.9648 7.65625 29.0586 8.04297 28.9648 8.48828C28.8945 8.93359 28.5195 9.36719 27.8398 9.78906C27.1602 10.1875 26.5625 10.3281 26.0469 10.2109C25.5312 10.0938 25.168 9.84766 24.957 9.47266C24.7461 9.09766 24.7109 8.66406 24.8516 8.17188C24.9922 7.65625 25.3789 7.22266 26.0117 6.87109ZM30.793 8.48828C31.4727 8.48828 32.0352 8.5 32.4805 8.52344C32.9258 8.52344 33.2773 8.52344 33.5352 8.52344H34.2383H35.0469C35.375 8.52344 35.8086 8.52344 36.3477 8.52344C36.9102 8.5 37.6367 8.46484 38.5273 8.41797C38.1055 8.51172 37.7773 8.61719 37.543 8.73438C37.3086 8.82812 37.1328 8.93359 37.0156 9.05078C36.875 9.16797 36.793 9.29688 36.7695 9.4375C36.793 9.625 36.875 9.91797 37.0156 10.3164C37.1328 10.668 37.332 11.1484 37.6133 11.7578C37.918 12.3672 38.3633 13.1875 38.9492 14.2188C39.9336 13.0938 40.6836 12.2031 41.1992 11.5469C41.7148 10.8906 42.1016 10.3867 42.3594 10.0352C42.6172 9.63672 42.7695 9.36719 42.8164 9.22656C42.793 9.10938 42.7578 8.99219 42.7109 8.875C42.6406 8.6875 42.4648 8.39453 42.1836 7.99609C42.8164 8.04297 43.3672 8.07813 43.8359 8.10156C44.3047 8.10156 44.7031 8.11328 45.0312 8.13672C45.4062 8.16016 45.7109 8.17188 45.9453 8.17188C46.2031 8.17188 46.5781 8.16016 47.0703 8.13672C47.4688 8.11328 48.0078 8.08984 48.6875 8.06641C49.3906 8.01953 50.2695 7.94922 51.3242 7.85547C50.457 8.27734 49.7188 8.6875 49.1094 9.08594C48.5 9.46094 47.9961 9.80078 47.5977 10.1055C47.1289 10.457 46.7422 10.7852 46.4375 11.0898C46.1328 11.4414 45.7578 11.875 45.3125 12.3906C44.9141 12.8594 44.4219 13.4453 43.8359 14.1484C43.2734 14.8281 42.582 15.6836 41.7617 16.7148C42.3711 17.7695 42.9453 18.6719 43.4844 19.4219C44.0469 20.1719 44.5273 20.793 44.9258 21.2852C45.3945 21.8711 45.8281 22.3398 46.2266 22.6914C46.625 23.043 47.0586 23.3945 47.5273 23.7461C47.9258 24.0508 48.3828 24.3789 48.8984 24.7305C49.4375 25.0586 50.0117 25.3516 50.6211 25.6094C50.0117 25.6562 49.4141 25.6914 48.8281 25.7148C48.2656 25.7148 47.7617 25.7383 47.3164 25.7852C46.8008 25.832 46.3086 25.8672 45.8398 25.8906C45.3711 25.9375 44.8906 25.9727 44.3984 25.9961C43.9766 26.0195 43.5078 26.043 42.9922 26.0664C42.4766 26.0898 41.9492 26.1016 41.4102 26.1016C41.6211 25.8906 41.7852 25.6914 41.9023 25.5039C42.0195 25.3164 42.1133 25.1523 42.1836 25.0117C42.2773 24.8477 42.3359 24.6953 42.3594 24.5547C42.3359 24.3672 42.2188 24.0625 42.0078 23.6406C41.8203 23.2656 41.5273 22.75 41.1289 22.0938C40.7305 21.4141 40.1445 20.5 39.3711 19.3516C38.832 19.9141 38.3984 20.4062 38.0703 20.8281C37.7656 21.25 37.5312 21.6016 37.3672 21.8828C37.1797 22.2109 37.0508 22.4805 36.9805 22.6914C36.9336 22.9023 36.9336 23.1367 36.9805 23.3945C37.0273 23.6055 37.0977 23.8633 37.1914 24.168C37.2852 24.4492 37.4492 24.7422 37.6836 25.0469C36.5117 25.1172 35.5273 25.1523 34.7305 25.1523H33.5352C33.1602 25.1523 32.7148 25.1406 32.1992 25.1172C31.7539 25.0938 31.2031 25.082 30.5469 25.082C29.8672 25.0586 29.082 25.0234 28.1914 24.9766C28.4492 24.8828 28.7188 24.7656 29 24.625C29.2812 24.4844 29.5273 24.3555 29.7383 24.2383C29.9961 24.0977 30.2422 23.9453 30.4766 23.7812C30.7344 23.5703 31.1445 23.1719 31.707 22.5859C32.1758 22.0938 32.8203 21.4023 33.6406 20.5117C34.4609 19.5977 35.5273 18.3789 36.8398 16.8555C36.0664 15.4492 35.4336 14.3359 34.9414 13.5156C34.4727 12.6719 34.1094 12.0156 33.8516 11.5469C33.5469 11.0078 33.3242 10.6445 33.1836 10.457C33.043 10.2695 32.8555 10.0586 32.6211 9.82422C32.2461 9.44922 31.6367 9.00391 30.793 8.48828ZM56.8789 22.3398C57.5352 22.3398 58.1445 22.2695 58.707 22.1289C59.1758 22.0117 59.6211 21.8242 60.043 21.5664C60.4883 21.2852 60.7812 20.875 60.9219 20.3359C61.3906 20.4297 61.7891 20.5117 62.1172 20.582C62.4453 20.6289 62.7266 20.6758 62.9609 20.7227C63.2188 20.793 63.4414 20.8398 63.6289 20.8633C63.8164 20.9102 64.0391 20.957 64.2969 21.0039C64.5312 21.0508 64.8125 21.1094 65.1406 21.1797C65.4922 21.2266 65.9023 21.2969 66.3711 21.3906C66.0195 21.3438 65.6562 21.3789 65.2812 21.4961C64.9297 21.6133 64.5898 21.7422 64.2617 21.8828C63.8867 22.0469 63.5352 22.2461 63.207 22.4805C62.9961 22.6211 62.75 22.832 62.4688 23.1133C62.2109 23.3945 61.8359 23.6641 61.3438 23.9219C60.8516 24.1797 60.1953 24.4023 59.375 24.5898C58.5781 24.7539 57.5469 24.8125 56.2812 24.7656C54.7578 24.7188 53.4805 24.4492 52.4492 23.957C51.418 23.4414 50.5859 22.8203 49.9531 22.0938C49.3203 21.3438 48.8633 20.5352 48.582 19.668C48.3008 18.8008 48.1484 17.9922 48.125 17.2422C48.1016 16.4922 48.3242 15.707 48.793 14.8867C49.2617 14.0664 49.918 13.3164 50.7617 12.6367C51.6289 11.957 52.6719 11.4062 53.8906 10.9844C55.1094 10.5391 56.4453 10.3164 57.8984 10.3164C58.7422 10.3164 59.5156 10.4219 60.2188 10.6328C60.9453 10.8203 61.6016 11.0781 62.1875 11.4062C62.7969 11.7344 63.3242 12.1094 63.7695 12.5312C64.2148 12.9297 64.5898 13.3398 64.8945 13.7617C65.1992 14.207 65.457 14.6758 65.668 15.168C65.8555 15.5898 66.0078 16.0703 66.125 16.6094C66.2422 17.1484 66.2773 17.6992 66.2305 18.2617C64.4492 18.3086 63.0078 18.3438 61.9062 18.3672C60.8281 18.3906 59.9844 18.4023 59.375 18.4023H57.793H56.5977C56.1758 18.4023 55.625 18.4141 54.9453 18.4375C54.2656 18.4609 53.4336 18.4961 52.4492 18.543C52.5664 19.4805 52.8594 20.207 53.3281 20.7227C53.8203 21.2148 54.3359 21.5898 54.875 21.8477C55.4844 22.1289 56.1523 22.293 56.8789 22.3398ZM53.7148 16.0117C54.4648 16.0586 55.0859 16.0938 55.5781 16.1172C56.0938 16.1406 56.5156 16.1641 56.8438 16.1875C57.1953 16.2109 57.4766 16.2227 57.6875 16.2227H58.5664C59.1523 16.2227 60.2422 16.1875 61.8359 16.1172C61.7656 15.0859 61.543 14.3008 61.168 13.7617C60.8164 13.2227 60.4414 12.8242 60.043 12.5664C59.5742 12.2852 59.0586 12.1211 58.4961 12.0742C56.9727 12.0977 55.8359 12.4141 55.0859 13.0234C54.3594 13.6328 53.9023 14.6289 53.7148 16.0117ZM68.4453 28.9844C68.6797 28.6328 68.8672 28.3047 69.0078 28C69.1484 27.6953 69.2656 27.4375 69.3594 27.2266C69.4531 26.9688 69.5234 26.7344 69.5703 26.5234C69.5938 26.3828 69.6055 25.9727 69.6055 25.293C69.6055 24.6133 69.582 23.7578 69.5352 22.7266C69.5117 21.6953 69.4766 20.5352 69.4297 19.2461C69.4062 17.957 69.3594 16.6445 69.2891 15.3086C69.2422 13.9727 69.1836 12.6719 69.1133 11.4062C69.0664 10.1406 69.0195 9.00391 68.9727 7.99609C68.9258 6.96484 68.8789 6.12109 68.832 5.46484C68.7852 4.80859 68.75 4.43359 68.7266 4.33984C68.6797 4.19922 68.5977 4.05859 68.4805 3.91797C68.2461 3.63672 67.8477 3.36719 67.2852 3.10938C68.4805 2.80469 69.3945 2.55859 70.0273 2.37109C70.4023 2.27734 70.7305 2.18359 71.0117 2.08984C71.2695 1.99609 71.5273 1.90234 71.7852 1.80859C71.9961 1.71484 72.2305 1.60938 72.4883 1.49219C72.7461 1.35156 72.9805 1.19922 73.1914 1.03516C73.0742 1.71484 72.9805 2.37109 72.9102 3.00391C72.8398 3.63672 72.7812 4.22266 72.7344 4.76172C72.6875 5.37109 72.6641 5.95703 72.6641 6.51953C72.5469 7.66797 72.4766 8.92188 72.4531 10.2812C72.4531 11.6172 72.4648 12.9766 72.4883 14.3594C72.5117 15.7422 72.5586 17.0898 72.6289 18.4023C72.6992 19.7148 72.7695 20.9102 72.8398 21.9883C72.9336 23.043 73.0156 23.9453 73.0859 24.6953C73.1797 25.4219 73.25 25.8906 73.2969 26.1016C73.3906 26.4531 73.4844 26.793 73.5781 27.1211C73.6719 27.4023 73.7773 27.6953 73.8945 28C74.0117 28.3281 74.1523 28.5859 74.3164 28.7734H70.9062C70.6016 28.7734 70.3086 28.7852 70.0273 28.8086C69.7695 28.832 69.5 28.8555 69.2188 28.8789C68.9375 28.9023 68.6797 28.9375 68.4453 28.9844ZM72.5234 3.28516C73.2969 3.37891 74 3.44922 74.6328 3.49609C75.2422 3.54297 75.7695 3.58984 76.2148 3.63672C76.7305 3.68359 77.1875 3.71875 77.5859 3.74219C78.0078 3.74219 78.5469 3.73047 79.2031 3.70703C79.7656 3.68359 80.4805 3.64844 81.3477 3.60156C82.2148 3.55469 83.2812 3.47266 84.5469 3.35547C83.9375 3.70703 83.4336 4.05859 83.0352 4.41016C82.6602 4.76172 82.3672 5.07812 82.1562 5.35938C81.8984 5.6875 81.7109 6.01562 81.5938 6.34375C81.5234 6.78906 81.5469 7.65625 81.6641 8.94531C81.7109 9.48438 81.7812 10.1523 81.875 10.9492C81.9922 11.7227 82.1328 12.6484 82.2969 13.7266C82.4844 14.7812 82.707 16 82.9648 17.3828C83.2461 18.7656 83.5625 20.3359 83.9141 22.0938C84.3828 20.7578 84.7695 19.5742 85.0742 18.543C85.3789 17.4883 85.6367 16.5859 85.8477 15.8359C86.082 14.9922 86.2812 14.2422 86.4453 13.5859C86.6094 12.9062 86.8086 12.0273 87.043 10.9492C87.2305 10.0352 87.4766 8.85156 87.7812 7.39844C88.0859 5.94531 88.4609 4.15234 88.9062 2.01953L90.1719 2.19531C90.2891 3.85938 90.4062 5.32422 90.5234 6.58984C90.6641 7.85547 90.7812 8.93359 90.875 9.82422C90.9688 10.8555 91.0625 11.7461 91.1562 12.4961C91.25 13.1758 91.3906 13.9609 91.5781 14.8516C91.7422 15.6016 91.9531 16.5273 92.2109 17.6289C92.4688 18.707 92.8086 19.9258 93.2305 21.2852C93.6523 19.6211 94.0273 18.1328 94.3555 16.8203C94.707 15.5078 95 14.3477 95.2344 13.3398C95.4922 12.332 95.7031 11.4648 95.8672 10.7383C96.0547 10.0117 96.207 9.40234 96.3242 8.91016C96.582 7.73828 96.7344 6.95313 96.7812 6.55469C96.7578 6.10938 96.6523 5.67578 96.4648 5.25391C96.3008 4.87891 96.043 4.46875 95.6914 4.02344C95.3398 3.57813 94.8242 3.14453 94.1445 2.72266C95.5742 2.76953 96.7344 2.80469 97.625 2.82812C98.5391 2.82812 99.2656 2.82812 99.8047 2.82812H101.211H102.477C102.945 2.82812 103.555 2.82812 104.305 2.82812C105.078 2.80469 106.062 2.76953 107.258 2.72266C106.227 3.26172 105.395 3.75391 104.762 4.19922C104.129 4.64453 103.637 5.01953 103.285 5.32422C102.863 5.69922 102.559 6.01562 102.371 6.27344C102.184 6.74219 101.879 7.79688 101.457 9.4375C101.27 10.1406 101.059 11.0195 100.824 12.0742C100.59 13.1055 100.309 14.3477 99.9805 15.8008C99.6758 17.2539 99.3242 18.9531 98.9258 20.8984C98.5273 22.8203 98.082 25.0234 97.5898 27.5078L91.5078 26.875L88.9062 15.9414C88.5078 17.9336 88.1914 19.5508 87.957 20.793C87.7227 22.0117 87.5469 22.9609 87.4297 23.6406C87.2891 24.4609 87.207 25.0586 87.1836 25.4336C87.1602 25.7617 87.1367 26.0781 87.1133 26.3828C87.0898 26.6406 87.0547 26.9219 87.0078 27.2266C86.9844 27.5312 86.9492 27.8125 86.9023 28.0703H80.6797C80.0703 25.3984 79.5195 23.043 79.0273 21.0039C78.5586 18.9414 78.1367 17.1367 77.7617 15.5898C77.3867 14.043 77.0586 12.7305 76.7773 11.6523C76.5195 10.5742 76.2852 9.67188 76.0742 8.94531C75.6055 7.25781 75.2656 6.21484 75.0547 5.81641C74.8906 5.62891 74.6797 5.40625 74.4219 5.14844C74.2109 4.9375 73.9531 4.67969 73.6484 4.375C73.3203 4.04687 72.9453 3.68359 72.5234 3.28516ZM103.461 12.2852L109.93 12.3555C109.555 13.7852 109.273 15.0039 109.086 16.0117C108.922 17.0195 108.816 17.8633 108.77 18.543C108.676 19.3164 108.652 19.9727 108.699 20.5117C108.77 21.0039 108.887 21.5312 109.051 22.0938C109.191 22.5625 109.402 23.1016 109.684 23.7109C109.965 24.3203 110.34 24.9297 110.809 25.5391C110.527 25.4453 110.223 25.375 109.895 25.3281C109.566 25.2812 109.262 25.2461 108.98 25.2227C108.652 25.1992 108.324 25.1992 107.996 25.2227C107.668 25.2461 107.305 25.2812 106.906 25.3281C106.578 25.375 106.18 25.4336 105.711 25.5039C105.242 25.5742 104.75 25.668 104.234 25.7852C104.586 24.7305 104.855 23.8164 105.043 23.043C105.254 22.2695 105.406 21.625 105.5 21.1094C105.594 20.5 105.652 20.0078 105.676 19.6328C105.676 19.1641 105.676 18.6367 105.676 18.0508C105.676 17.4414 105.676 16.8555 105.676 16.293C105.676 15.7305 105.664 15.2383 105.641 14.8164C105.617 14.3711 105.57 14.0898 105.5 13.9727L105.148 13.6211C105.008 13.5039 104.797 13.3398 104.516 13.1289C104.258 12.8945 103.906 12.6133 103.461 12.2852ZM105.957 6.87109C106.449 6.61328 106.941 6.54297 107.434 6.66016C107.949 6.77734 108.348 7 108.629 7.32812C108.91 7.65625 109.004 8.04297 108.91 8.48828C108.84 8.93359 108.465 9.36719 107.785 9.78906C107.105 10.1875 106.508 10.3281 105.992 10.2109C105.477 10.0938 105.113 9.84766 104.902 9.47266C104.691 9.09766 104.656 8.66406 104.797 8.17188C104.938 7.65625 105.324 7.22266 105.957 6.87109ZM111.723 7.64453C112.801 7.73828 113.75 7.80859 114.57 7.85547C115.414 7.87891 116.117 7.91406 116.68 7.96094C117.336 8.00781 117.91 8.04297 118.402 8.06641C118.918 8.08984 119.574 8.08984 120.371 8.06641C121.051 8.06641 121.918 8.05469 122.973 8.03125C124.051 7.98437 125.363 7.91406 126.91 7.82031L126.629 12.707C125.949 13.3867 125.34 14.0195 124.801 14.6055C124.285 15.1914 123.828 15.6953 123.43 16.1172C122.984 16.6094 122.586 17.0547 122.234 17.4531C121.883 17.875 121.484 18.3789 121.039 18.9648C120.641 19.4805 120.16 20.1133 119.598 20.8633C119.035 21.5898 118.391 22.4453 117.664 23.4297C118.953 23.3594 120.008 23.2891 120.828 23.2188C121.648 23.125 122.293 23.043 122.762 22.9727C123.324 22.8789 123.734 22.8086 123.992 22.7617C124.227 22.668 124.496 22.4688 124.801 22.1641C125.059 21.9062 125.375 21.5195 125.75 21.0039C126.125 20.4883 126.547 19.7852 127.016 18.8945C127.016 19.6211 127.016 20.2422 127.016 20.7578C127.039 21.25 127.051 21.6602 127.051 21.9883V22.9375V23.7461C127.051 24.0039 127.051 24.3203 127.051 24.6953C127.074 25.0703 127.098 25.4922 127.121 25.9609C126.207 25.8438 125.375 25.7617 124.625 25.7148C123.875 25.6445 123.23 25.5977 122.691 25.5742C122.059 25.5508 121.484 25.5508 120.969 25.5742C120.453 25.6211 119.809 25.668 119.035 25.7148C118.379 25.7617 117.57 25.8086 116.609 25.8555C115.648 25.9023 114.512 25.9609 113.199 26.0312L112.426 22.3047C112.848 22.1172 113.352 21.7539 113.938 21.2148C114.523 20.6758 115.086 20.125 115.625 19.5625C116.234 18.9062 116.879 18.1914 117.559 17.418C118.215 16.6445 118.859 15.8711 119.492 15.0977C120.031 14.4414 120.594 13.7617 121.18 13.0586C121.789 12.3555 122.316 11.7344 122.762 11.1953C121.496 11.2422 120.453 11.3359 119.633 11.4766C118.812 11.5938 118.168 11.7109 117.699 11.8281C117.137 11.9688 116.715 12.1328 116.434 12.3203C116.176 12.5312 115.859 12.8477 115.484 13.2695C115.156 13.6211 114.758 14.1016 114.289 14.7109C113.82 15.2969 113.281 16.0586 112.672 16.9961C112.672 16.2227 112.66 15.5312 112.637 14.9219C112.613 14.2891 112.59 13.7617 112.566 13.3398C112.52 12.8477 112.484 12.4141 112.461 12.0391C112.414 11.6641 112.355 11.2539 112.285 10.8086C112.238 10.4102 112.156 9.95312 112.039 9.4375C111.945 8.89844 111.84 8.30078 111.723 7.64453ZM130.988 13.7617C131.105 13.6211 131.176 13.3633 131.199 12.9883C131.246 12.5898 131.34 12.1445 131.48 11.6523C131.645 11.1602 131.914 10.6445 132.289 10.1055C132.664 9.56641 133.273 9.0625 134.117 8.59375C134.938 8.125 135.734 7.84375 136.508 7.75C137.281 7.65625 138.02 7.69141 138.723 7.85547C139.426 8.01953 140.082 8.27734 140.691 8.62891C141.324 8.98047 141.898 9.36719 142.414 9.78906C142.766 10.0703 143.047 10.4805 143.258 11.0195C143.469 11.5352 143.633 12.1211 143.75 12.7773C143.867 13.4336 143.949 14.125 143.996 14.8516C144.066 15.5547 144.113 16.2461 144.137 16.9258C144.16 17.582 144.172 18.1914 144.172 18.7539C144.195 19.293 144.242 19.7383 144.312 20.0898C144.406 20.6055 144.57 21.0508 144.805 21.4258C145.039 21.7773 145.297 22.082 145.578 22.3398C145.859 22.5742 146.141 22.7617 146.422 22.9023C146.703 23.043 146.949 23.1484 147.16 23.2188C147.301 23.2891 147.43 23.3359 147.547 23.3594C147.781 23.4531 147.945 23.4531 148.039 23.3594C147.898 23.6875 147.77 23.9688 147.652 24.2031C147.535 24.4375 147.441 24.6367 147.371 24.8008C147.277 24.9883 147.195 25.1406 147.125 25.2578C147.055 25.3984 146.973 25.5273 146.879 25.6445C146.809 25.7617 146.715 25.8906 146.598 26.0312C146.48 26.1719 146.363 26.3242 146.246 26.4883C145.941 26.3711 145.648 26.2305 145.367 26.0664C145.109 25.9023 144.875 25.75 144.664 25.6094C144.406 25.4453 144.172 25.2812 143.961 25.1172C143.75 24.9531 143.551 24.7656 143.363 24.5547C143.199 24.3672 143.023 24.168 142.836 23.957C142.672 23.7461 142.531 23.5117 142.414 23.2539C142.273 23.5586 141.934 23.9922 141.395 24.5547C140.879 25.1172 140.199 25.6328 139.355 26.1016C138.512 26.5469 137.527 26.8633 136.402 27.0508C135.301 27.2383 134.082 27.1094 132.746 26.6641C132.16 26.4766 131.609 26.207 131.094 25.8555C130.578 25.4805 130.133 25.0352 129.758 24.5195C129.406 24.0039 129.148 23.418 128.984 22.7617C128.844 22.082 128.855 21.332 129.02 20.5117C129.184 19.6914 129.477 19 129.898 18.4375C130.32 17.875 130.824 17.418 131.41 17.0664C131.996 16.7148 132.652 16.4453 133.379 16.2578C134.105 16.0703 134.855 15.9414 135.629 15.8711C136.238 15.8477 136.848 15.8828 137.457 15.9766C137.973 16.0703 138.512 16.2461 139.074 16.5039C139.637 16.7383 140.117 17.1016 140.516 17.5938C140.492 16.3516 140.445 15.3672 140.375 14.6406C140.328 13.8906 140.281 13.3164 140.234 12.918C140.141 12.4492 140.059 12.1211 139.988 11.9336C139.871 11.7695 139.742 11.582 139.602 11.3711C139.484 11.1602 139.332 10.9727 139.145 10.8086C138.957 10.6211 138.723 10.4688 138.441 10.3516C138.16 10.2344 137.832 10.1875 137.457 10.2109C137.059 10.2344 136.742 10.3398 136.508 10.5273C136.273 10.7148 136.086 10.9375 135.945 11.1953C135.828 11.4297 135.758 11.6875 135.734 11.9688C135.711 12.25 135.723 12.4961 135.77 12.707C135.816 12.8477 135.887 13 135.98 13.1641C136.074 13.3047 136.203 13.457 136.367 13.6211C136.531 13.7852 136.754 13.9258 137.035 14.043C136.496 14.1133 136.016 14.1719 135.594 14.2188C135.172 14.2422 134.809 14.2773 134.504 14.3242C134.152 14.3711 133.848 14.4062 133.59 14.4297C133.332 14.4531 133.027 14.5 132.676 14.5703C132.371 14.6172 131.996 14.6758 131.551 14.7461C131.105 14.8164 130.59 14.9102 130.004 15.0273C130.145 14.8633 130.273 14.7109 130.391 14.5703C130.508 14.4062 130.613 14.2656 130.707 14.1484C130.801 14.0078 130.895 13.8789 130.988 13.7617ZM136.262 17.9453C135.84 17.9688 135.418 18.0742 134.996 18.2617C134.574 18.4258 134.199 18.6719 133.871 19C133.543 19.3047 133.262 19.668 133.027 20.0898C132.816 20.4883 132.711 20.9336 132.711 21.4258C132.711 21.918 132.828 22.3516 133.062 22.7266C133.32 23.0781 133.648 23.3711 134.047 23.6055C134.469 23.8398 134.914 23.9805 135.383 24.0273C135.875 24.0742 136.355 24.0273 136.824 23.8867C137.27 23.7227 137.691 23.4648 138.09 23.1133C138.488 22.7383 138.828 22.3398 139.109 21.918C139.391 21.4727 139.59 21.0391 139.707 20.6172C139.824 20.1719 139.836 19.8086 139.742 19.5273C139.555 18.918 139.133 18.4961 138.477 18.2617C137.82 18.0039 137.082 17.8984 136.262 17.9453ZM147.336 11.1602C147.781 11.1836 148.18 11.1953 148.531 11.1953C148.906 11.1719 149.223 11.1484 149.48 11.125C149.785 11.1016 150.055 11.0781 150.289 11.0547C150.641 11.0078 151.004 10.9492 151.379 10.8789C151.707 10.832 152.047 10.7734 152.398 10.7031C152.773 10.6094 153.137 10.5039 153.488 10.3867C153.348 10.7383 153.23 11.043 153.137 11.3008C153.043 11.5586 152.973 11.7812 152.926 11.9688C152.855 12.1797 152.82 12.3555 152.82 12.4961C152.797 12.6602 152.785 12.8594 152.785 13.0938C152.762 13.4922 152.762 14.1367 152.785 15.0273C154.004 13.9727 155.023 13.1523 155.844 12.5664C156.688 11.9805 157.355 11.5234 157.848 11.1953C158.434 10.8203 158.891 10.5742 159.219 10.457C160.086 10.3164 160.848 10.5156 161.504 11.0547C161.785 11.2891 162.055 11.6055 162.312 12.0039C162.57 12.3789 162.793 12.8828 162.98 13.5156C163.168 14.1484 163.309 14.9102 163.402 15.8008C163.496 16.668 163.508 17.7109 163.438 18.9297C162.945 18.9766 162.5 19.0234 162.102 19.0703C161.727 19.1172 161.41 19.1523 161.152 19.1758C160.848 19.2227 160.566 19.2461 160.309 19.2461L159.359 19.3516C159.031 19.3984 158.621 19.4453 158.129 19.4922C157.66 19.5156 157.086 19.5625 156.406 19.6328C157.391 18.8359 158.023 18.1445 158.305 17.5586C158.609 16.9492 158.738 16.4453 158.691 16.0469C158.645 15.6016 158.434 15.2148 158.059 14.8867C157.613 14.6289 157.133 14.5352 156.617 14.6055C156.172 14.6523 155.656 14.8516 155.07 15.2031C154.484 15.5547 153.863 16.2109 153.207 17.1719C153.254 18.6719 153.301 19.9141 153.348 20.8984C153.418 21.8828 153.477 22.6797 153.523 23.2891C153.594 23.9922 153.652 24.543 153.699 24.9414C153.77 25.293 153.91 25.668 154.121 26.0664C154.285 26.3945 154.52 26.7578 154.824 27.1562C155.129 27.5547 155.527 27.9531 156.02 28.3516C154.988 28.3047 154.145 28.3047 153.488 28.3516C153.09 28.375 152.738 28.3984 152.434 28.4219C152.105 28.4688 151.754 28.5156 151.379 28.5625C151.051 28.6094 150.664 28.6562 150.219 28.7031C149.797 28.7734 149.328 28.8438 148.812 28.9141C149 28.6562 149.152 28.3516 149.27 28C149.387 27.6719 149.48 27.3555 149.551 27.0508C149.645 26.6992 149.715 26.3359 149.762 25.9609C149.785 25.6328 149.797 25.1406 149.797 24.4844C149.82 23.8281 149.809 23.0898 149.762 22.2695C149.738 21.4258 149.703 20.5586 149.656 19.668C149.609 18.7539 149.551 17.8984 149.48 17.1016C149.41 16.3047 149.328 15.6133 149.234 15.0273C149.164 14.418 149.082 13.9961 148.988 13.7617C148.871 13.4805 148.73 13.1992 148.566 12.918C148.426 12.6602 148.25 12.3906 148.039 12.1094C147.828 11.8047 147.594 11.4883 147.336 11.1602ZM182.176 1.07031C182.621 1.09375 183.102 1.10547 183.617 1.10547C184.062 1.10547 184.566 1.11719 185.129 1.14062C185.715 1.14062 186.324 1.11719 186.957 1.07031C186.395 1.32813 185.902 1.70312 185.48 2.19531C185.059 2.6875 184.719 3.17969 184.461 3.67188C184.133 4.25781 183.863 4.86719 183.652 5.5C183.535 5.875 183.441 6.54297 183.371 7.50391C183.301 8.44141 183.242 9.54297 183.195 10.8086C183.172 12.0742 183.16 13.4102 183.16 14.8164C183.16 16.2227 183.172 17.5703 183.195 18.8594C183.219 20.125 183.254 21.25 183.301 22.2344C183.348 23.2188 183.406 23.9102 183.477 24.3086C183.57 24.7773 183.688 25.2227 183.828 25.6445C183.945 26.0195 184.098 26.4062 184.285 26.8047C184.473 27.1797 184.707 27.4844 184.988 27.7188L181.402 29.3359C181.215 29.0781 181.062 28.8086 180.945 28.5273C180.828 28.2695 180.734 28.0352 180.664 27.8242C180.57 27.5664 180.512 27.332 180.488 27.1211C180.441 26.8398 180.395 26.5352 180.348 26.207C180.301 25.8555 180.242 25.5273 180.172 25.2227C180.125 24.8945 180.09 24.625 180.066 24.4141C180.043 24.2031 180.043 24.0742 180.066 24.0273C180.09 23.9805 179.949 24.1914 179.645 24.6602C179.34 25.1055 178.883 25.6328 178.273 26.2422C177.688 26.8281 176.961 27.4023 176.094 27.9648C175.227 28.5039 174.254 28.8438 173.176 28.9844C172.074 29.125 171.055 28.9141 170.117 28.3516C169.203 27.7891 168.418 27.0039 167.762 25.9961C167.105 24.9648 166.602 23.7812 166.25 22.4453C165.922 21.0859 165.793 19.7031 165.863 18.2969C165.91 17.3594 166.121 16.5273 166.496 15.8008C166.871 15.0508 167.34 14.4062 167.902 13.8672C168.488 13.3047 169.121 12.8359 169.801 12.4609C170.504 12.0625 171.184 11.7344 171.84 11.4766C172.52 11.2188 173.152 11.0312 173.738 10.9141C174.324 10.7969 174.793 10.7148 175.145 10.668C175.566 10.6445 176.047 10.7148 176.586 10.8789C177.055 11.0195 177.594 11.2539 178.203 11.582C178.836 11.9102 179.539 12.4023 180.312 13.0586C180.172 10.7148 180.043 8.83984 179.926 7.43359C179.809 6.00391 179.691 4.91406 179.574 4.16406C179.457 3.27344 179.352 2.66406 179.258 2.33594C179.141 2.10156 178.988 1.86719 178.801 1.63281C178.637 1.44531 178.426 1.25781 178.168 1.07031C177.934 0.859375 177.652 0.695313 177.324 0.578125C177.934 0.695313 178.52 0.777344 179.082 0.824219C179.645 0.871094 180.16 0.917969 180.629 0.964844C181.168 1.01172 181.684 1.04688 182.176 1.07031ZM173.352 14.1836C172.906 14.3477 172.543 14.6289 172.262 15.0273C172.004 15.4258 171.793 15.9062 171.629 16.4688C171.465 17.0078 171.348 17.5938 171.277 18.2266C171.23 18.8359 171.195 19.4336 171.172 20.0195C171.172 20.582 171.172 21.0977 171.172 21.5664C171.172 22.0352 171.172 22.3867 171.172 22.6211C171.172 22.7617 171.195 23.0195 171.242 23.3945C171.312 23.7461 171.453 24.1211 171.664 24.5195C171.875 24.8945 172.168 25.2344 172.543 25.5391C172.941 25.8438 173.469 25.9961 174.125 25.9961C174.664 25.9492 175.238 25.7617 175.848 25.4336C176.387 25.1523 176.996 24.707 177.676 24.0977C178.379 23.4648 179.129 22.5625 179.926 21.3906C179.879 20.6406 179.844 20.0195 179.82 19.5273C179.82 19.0352 179.809 18.6367 179.785 18.332C179.762 17.9805 179.75 17.6992 179.75 17.4883V16.9609C179.75 16.8203 179.75 16.668 179.75 16.5039C179.75 16.3398 179.762 16.1875 179.785 16.0469C179.129 15.5781 178.543 15.1797 178.027 14.8516C177.535 14.5 177.043 14.2422 176.551 14.0781C176.082 13.8906 175.59 13.8086 175.074 13.832C174.582 13.832 174.008 13.9492 173.352 14.1836ZM186.219 15.0977C187.133 15.1211 187.965 15.1328 188.715 15.1328C189.488 15.1328 190.156 15.1328 190.719 15.1328C191.375 15.1328 191.973 15.1211 192.512 15.0977C193.074 15.0977 193.789 15.0742 194.656 15.0273C195.406 15.0039 196.344 14.9688 197.469 14.9219C198.617 14.875 200.012 14.8164 201.652 14.7461L201.477 18.332C200.164 18.2383 199.062 18.1797 198.172 18.1562C197.305 18.1094 196.602 18.0742 196.062 18.0508C195.43 18.0273 194.914 18.0273 194.516 18.0508C194.117 18.0742 193.555 18.1094 192.828 18.1562C192.219 18.2031 191.387 18.2617 190.332 18.332C189.301 18.3789 187.988 18.4609 186.395 18.5781L186.219 15.0977ZM207.875 4.19922C209.047 4.26953 210.031 4.32812 210.828 4.375C211.648 4.39844 212.328 4.42188 212.867 4.44531C213.477 4.46875 213.992 4.46875 214.414 4.44531C214.836 4.42188 215.41 4.36328 216.137 4.26953C216.746 4.19922 217.555 4.09375 218.562 3.95312C219.594 3.78906 220.871 3.57813 222.395 3.32031C221.855 3.85938 221.434 4.35156 221.129 4.79688C220.848 5.21875 220.625 5.58203 220.461 5.88672C220.273 6.26172 220.145 6.57812 220.074 6.83594C220.027 7.07031 220.074 7.65625 220.215 8.59375C220.355 9.53125 220.555 10.6445 220.812 11.9336C221.07 13.1992 221.352 14.5586 221.656 16.0117C221.961 17.4414 222.266 18.7891 222.57 20.0547C222.875 21.2969 223.145 22.3633 223.379 23.2539C223.637 24.1211 223.824 24.6367 223.941 24.8008C224.293 25.293 224.516 25.6211 224.609 25.7852C224.703 25.9258 224.867 26.0547 225.102 26.1719C225.195 26.2188 225.348 26.2891 225.559 26.3828C225.746 26.4766 225.992 26.5938 226.297 26.7344C226.625 26.875 227.035 27.0391 227.527 27.2266C226.613 27.2734 225.828 27.3086 225.172 27.332C224.516 27.332 223.977 27.3438 223.555 27.3672C223.062 27.3906 222.641 27.4141 222.289 27.4375C221.938 27.4375 221.516 27.4609 221.023 27.5078C220.602 27.5547 220.051 27.6016 219.371 27.6484C218.715 27.6953 217.941 27.7422 217.051 27.7891C217.52 27.4609 217.895 27.168 218.176 26.9102C218.48 26.6289 218.715 26.3945 218.879 26.207C219.066 25.9727 219.195 25.7617 219.266 25.5742C219.312 25.3633 219.348 25.0469 219.371 24.625C219.395 24.25 219.395 23.7578 219.371 23.1484C219.348 22.5156 219.289 21.6953 219.195 20.6875L209.949 21.6367C209.715 22.0352 209.539 22.3867 209.422 22.6914C209.305 22.9727 209.223 23.2188 209.176 23.4297C209.105 23.6875 209.082 23.8984 209.105 24.0625C209.152 24.25 209.234 24.4727 209.352 24.7305C209.469 24.9648 209.633 25.2461 209.844 25.5742C210.078 25.8789 210.418 26.2422 210.863 26.6641C210.277 26.6406 209.68 26.6289 209.07 26.6289C208.461 26.6289 207.898 26.6406 207.383 26.6641C206.773 26.6875 206.176 26.7109 205.59 26.7344C205.004 26.7578 204.336 26.793 203.586 26.8398C202.953 26.8867 202.215 26.9453 201.371 27.0156C200.504 27.0625 199.578 27.1328 198.594 27.2266C199.203 26.9453 199.719 26.6641 200.141 26.3828C200.562 26.0781 200.914 25.7969 201.195 25.5391C201.523 25.2578 201.805 24.9883 202.039 24.7305C202.203 24.4961 202.531 23.957 203.023 23.1133C203.516 22.2461 204.066 21.2266 204.676 20.0547C205.309 18.8828 205.965 17.6289 206.645 16.293C207.348 14.957 207.98 13.7031 208.543 12.5312C209.105 11.3359 209.562 10.3047 209.914 9.4375C210.266 8.57031 210.441 8.00781 210.441 7.75C210.395 7.44531 210.277 7.10547 210.09 6.73047C209.926 6.40234 209.668 6.02734 209.316 5.60547C208.988 5.18359 208.508 4.71484 207.875 4.19922ZM218.773 18.0859C218.633 17.2656 218.504 16.5625 218.387 15.9766C218.27 15.3672 218.176 14.8633 218.105 14.4648C218.012 13.9961 217.941 13.5859 217.895 13.2344C217.824 12.9062 217.742 12.4844 217.648 11.9688C217.555 11.5234 217.438 10.9727 217.297 10.3164C217.18 9.63672 217.027 8.82812 216.84 7.89062C215.504 10.5625 214.461 12.6367 213.711 14.1133C212.984 15.5664 212.457 16.6328 212.129 17.3125C211.73 18.1094 211.508 18.5781 211.461 18.7188L218.773 18.0859ZM226.051 3.77734C226.848 3.87109 227.516 3.94141 228.055 3.98828C228.617 4.01172 229.074 4.04687 229.426 4.09375C229.848 4.14063 230.176 4.16406 230.41 4.16406C230.668 4.1875 231.055 4.17578 231.57 4.12891C232.016 4.08203 232.613 4.02344 233.363 3.95312C234.137 3.88281 235.121 3.77734 236.316 3.63672C235.777 4.10547 235.344 4.5625 235.016 5.00781C234.711 5.42969 234.477 5.80469 234.312 6.13281C234.102 6.53125 233.973 6.90625 233.926 7.25781C233.832 7.82031 233.75 8.59375 233.68 9.57812C233.633 10.5391 233.586 11.5938 233.539 12.7422C233.492 13.8906 233.469 15.0742 233.469 16.293C233.469 17.5117 233.48 18.6719 233.504 19.7734C233.551 20.8516 233.621 21.8125 233.715 22.6562C233.832 23.5 233.973 24.1094 234.137 24.4844C234.371 24.9062 234.617 25.3281 234.875 25.75C235.109 26.1016 235.391 26.4648 235.719 26.8398C236.047 27.2148 236.422 27.5195 236.844 27.7539C235.461 27.6836 234.359 27.6484 233.539 27.6484H232.273C231.898 27.6484 231.418 27.6719 230.832 27.7188C230.34 27.7656 229.719 27.8125 228.969 27.8594C228.219 27.9062 227.316 27.9766 226.262 28.0703C226.801 27.4844 227.223 26.9219 227.527 26.3828C227.832 25.8438 228.078 25.375 228.266 24.9766C228.477 24.5078 228.617 24.0625 228.688 23.6406C228.781 23.0312 228.852 22.2812 228.898 21.3906C228.969 20.4766 229.016 19.5039 229.039 18.4727C229.062 17.418 229.062 16.3516 229.039 15.2734C229.039 14.1719 229.016 13.1172 228.969 12.1094C228.922 11.1016 228.852 10.1875 228.758 9.36719C228.688 8.54687 228.594 7.89062 228.477 7.39844C228.406 7.09375 228.266 6.75391 228.055 6.37891C227.867 6.05078 227.609 5.67578 227.281 5.25391C226.977 4.80859 226.566 4.31641 226.051 3.77734Z" fill="url(#paint0_linear_343_59)"/>
<defs>
<linearGradient id="paint0_linear_343_59" x1="2" y1="15" x2="238" y2="15" gradientUnits="userSpaceOnUse">
<stop stop-color="#4B9AF3"/>
<stop offset="1" stop-color="#2C67F2"/>
</linearGradient>
</defs>
</svg>
