<svg width="23" height="22" viewBox="0 0 23 22" fill="none" xmlns="http://www.w3.org/2000/svg">
<g id="buyCredits">
<path id="Vector" d="M6.9502 20.95C7.50248 20.95 7.9502 20.5022 7.9502 19.95C7.9502 19.3977 7.50248 18.95 6.9502 18.95C6.39791 18.95 5.9502 19.3977 5.9502 19.95C5.9502 20.5022 6.39791 20.95 6.9502 20.95Z" stroke="#2C67F2" stroke-width="2" stroke-linecap="round" stroke-linejoin="round"/>
<path id="Vector_2" d="M17.9502 20.95C18.5025 20.95 18.9502 20.5022 18.9502 19.95C18.9502 19.3977 18.5025 18.95 17.9502 18.95C17.3979 18.95 16.9502 19.3977 16.9502 19.95C16.9502 20.5022 17.3979 20.95 17.9502 20.95Z" stroke="#2C67F2" stroke-width="2" stroke-linecap="round" stroke-linejoin="round"/>
<path id="Vector_3" d="M1 1H3L5.66 13.42C5.75758 13.8749 6.01067 14.2815 6.37571 14.5699C6.74075 14.8582 7.19491 15.0103 7.66 15H17.44C17.8952 14.9993 18.3365 14.8433 18.691 14.5578C19.0456 14.2724 19.2921 13.8745 19.39 13.43L21.04 6H4.07" stroke="#2C67F2" stroke-width="2" stroke-linecap="round" stroke-linejoin="round"/>
</g>
</svg>
