<svg width="20" height="20" viewBox="0 0 20 20" fill="none" xmlns="http://www.w3.org/2000/svg">
<g id="imageRestore">
<path id="Vector" d="M17 1H3C1.89543 1 1 1.89543 1 3V17C1 18.1046 1.89543 19 3 19H17C18.1046 19 19 18.1046 19 17V3C19 1.89543 18.1046 1 17 1Z" stroke="#2C67F2" stroke-width="2" stroke-linecap="round" stroke-linejoin="round"/>
<path id="Vector_2" d="M7 9C8.10457 9 9 8.10457 9 7C9 5.89543 8.10457 5 7 5C5.89543 5 5 5.89543 5 7C5 8.10457 5.89543 9 7 9Z" stroke="#2C67F2" stroke-width="2" stroke-linecap="round" stroke-linejoin="round"/>
<path id="Vector_3" d="M19 12.9999L15.914 9.91394C15.5389 9.539 15.0303 9.32837 14.5 9.32837C13.9697 9.32837 13.4611 9.539 13.086 9.91394L4 18.9999" stroke="#2C67F2" stroke-width="2" stroke-linecap="round" stroke-linejoin="round"/>
</g>
</svg>
